<?xml version="1.0" encoding="UTF-8" standalone="no"?>
<!DOCTYPE svg PUBLIC "-//W3C//DTD SVG 1.1//EN" "http://www.w3.org/Graphics/SVG/1.1/DTD/svg11.dtd">
<svg xmlns="http://www.w3.org/2000/svg" version="1.1" viewBox="0 0 1024 1024" width="1024.0pt" height="1024.0pt" xmlns:xlink="http://www.w3.org/1999/xlink">
<defs>
<path d="M 0.00 0.00 L 1024.00 0.00 L 1024.00 1024.00 L 0.00 1024.00 L 0.00 0.00 Z M 275.13 604.20 C 319.62 648.67 376.46 680.50 437.78 694.67 C 457.90 699.62 478.32 702.14 498.96 703.46 C 509.97 703.66 520.99 703.68 531.99 703.48 C 575.36 701.36 618.57 691.08 658.06 672.91 C 722.43 643.66 777.08 593.54 812.23 532.24 C 834.43 493.51 849.03 450.27 854.49 405.96 C 854.78 403.29 855.22 400.69 855.25 397.99 C 855.20 374.04 855.27 349.92 855.22 325.99 C 847.52 249.08 812.20 175.81 757.44 121.34 C 713.75 77.38 658.01 45.90 597.80 31.17 C 587.00 28.41 576.06 26.59 565.08 24.77 C 559.67 24.36 554.35 23.49 548.97 22.82 C 522.70 20.68 496.15 20.79 470.02 24.49 C 424.01 30.49 379.18 46.44 339.49 70.45 C 290.95 99.86 249.96 141.40 221.35 190.42 C 200.46 225.98 186.39 265.32 179.54 305.96 C 177.55 316.57 176.78 327.30 175.56 338.01 C 175.21 343.35 175.59 348.73 174.99 354.02 C 174.30 361.77 174.85 369.29 175.34 377.00 C 175.03 387.40 176.89 397.48 177.72 407.80 C 182.43 440.74 191.42 473.52 205.38 503.77 C 222.23 541.11 246.14 575.29 275.13 604.20 Z M 640.73 723.71 C 636.27 725.63 635.33 732.07 638.37 735.56 C 640.67 738.68 646.23 737.78 649.60 737.56 C 656.08 736.25 656.34 725.83 650.31 723.67 C 647.85 723.12 643.18 723.12 640.73 723.71 Z M 438.90 724.47 C 438.93 732.84 438.59 741.05 439.74 749.37 C 437.87 747.06 436.23 744.85 433.54 743.43 C 428.86 741.31 423.20 741.39 418.65 743.77 C 415.23 745.92 412.48 749.19 411.01 752.96 C 408.49 759.49 408.31 766.14 408.82 773.04 C 409.89 778.60 410.97 783.72 414.98 788.00 C 419.51 792.90 427.18 793.92 433.06 791.02 C 435.77 789.71 437.42 787.52 439.27 785.24 C 440.62 787.32 441.88 789.45 443.06 791.64 C 447.32 791.74 451.58 791.70 455.85 791.70 C 455.83 769.29 455.89 746.87 455.82 724.46 C 450.18 724.48 444.54 724.46 438.90 724.47 Z M 706.45 791.68 C 712.11 791.72 717.77 791.71 723.43 791.68 C 723.45 783.45 723.35 775.22 723.47 767.00 C 723.60 763.61 724.12 759.21 726.88 756.88 C 728.58 755.04 731.80 755.07 734.02 755.76 C 737.00 758.02 737.31 761.54 737.41 765.00 C 737.43 773.90 737.40 782.80 737.41 791.70 C 743.07 791.68 748.74 791.76 754.39 791.63 C 754.34 781.09 754.40 770.54 754.37 760.00 C 754.33 754.49 752.84 749.17 748.51 745.51 C 743.83 741.64 736.51 741.18 730.87 742.77 C 727.42 743.67 725.12 746.90 722.61 749.24 C 723.63 740.99 723.43 732.77 723.41 724.48 C 717.76 724.46 712.12 724.47 706.48 724.48 C 706.42 746.88 706.48 769.28 706.45 791.68 Z M 270.76 728.58 C 270.74 749.59 270.78 770.61 270.74 791.62 C 275.90 791.73 281.08 791.80 286.24 791.56 C 286.17 783.70 286.27 775.83 286.20 767.97 C 285.69 760.63 285.24 753.18 285.72 745.85 C 286.16 747.93 286.45 750.07 287.05 752.12 C 290.96 765.30 294.57 778.57 298.53 791.73 C 303.89 791.68 309.25 791.69 314.60 791.73 C 315.95 787.56 316.94 783.30 318.22 779.11 C 321.21 767.92 324.40 756.78 327.50 745.62 C 327.65 751.43 327.07 757.19 327.11 762.99 C 327.11 772.56 327.11 782.13 327.11 791.70 C 332.29 791.70 337.47 791.71 342.65 791.70 C 342.63 770.64 342.70 749.57 342.62 728.51 C 335.03 728.57 327.44 728.42 319.86 728.61 C 315.93 743.80 311.21 758.82 306.90 773.92 C 302.32 758.82 298.23 743.57 293.54 728.50 C 285.95 728.57 278.35 728.45 270.76 728.58 Z M 541.05 728.52 C 541.22 730.09 541.37 731.70 541.69 733.25 C 546.16 751.38 550.78 769.44 555.24 787.57 C 555.50 788.88 555.72 790.19 555.89 791.51 C 562.70 791.92 569.55 791.61 576.37 791.70 C 576.92 789.14 577.51 786.59 578.09 784.04 C 580.47 772.33 583.64 760.66 585.32 748.84 C 587.05 761.35 590.34 773.68 592.89 786.09 C 593.31 787.90 593.60 789.71 593.82 791.55 C 600.62 791.86 607.45 791.65 614.26 791.69 C 619.26 770.60 624.88 749.64 629.75 728.53 C 624.36 728.49 618.96 728.58 613.56 728.47 C 612.38 731.88 611.91 735.39 611.08 738.98 C 608.46 751.58 605.23 764.21 603.22 776.91 C 600.99 760.68 596.49 744.65 593.26 728.57 C 588.03 728.46 582.80 728.58 577.57 728.47 C 576.39 731.92 575.85 735.46 575.00 738.98 C 572.11 751.63 568.88 764.06 567.10 776.94 C 564.49 760.71 560.11 744.78 557.20 728.60 C 551.82 728.46 546.43 728.55 541.05 728.52 Z M 662.33 748.42 C 662.31 750.78 662.32 753.14 662.34 755.50 C 664.33 755.52 666.31 755.54 668.30 755.58 C 668.33 763.39 668.18 771.22 668.37 779.03 C 668.43 783.61 670.48 788.08 674.49 790.49 C 678.34 792.80 682.66 792.66 686.99 792.54 C 690.80 792.44 694.17 791.26 697.73 790.09 C 697.89 786.06 697.86 782.03 697.83 777.99 C 694.56 778.13 689.35 780.61 686.58 778.25 C 684.96 777.20 685.52 775.69 685.31 774.01 C 685.28 767.84 685.32 761.67 685.31 755.51 C 689.28 755.51 693.24 755.52 697.20 755.47 C 697.04 751.22 697.69 746.67 696.69 742.54 C 692.90 742.69 689.10 742.65 685.31 742.64 C 685.30 739.51 685.30 736.39 685.36 733.27 C 681.65 732.92 677.66 732.56 673.98 733.27 C 672.31 736.35 671.42 739.83 669.77 742.90 C 667.71 745.10 664.73 746.59 662.33 748.42 Z M 466.71 777.19 C 468.24 781.13 470.20 784.72 473.64 787.31 C 479.20 791.76 486.06 792.80 493.00 792.59 C 498.85 792.64 504.10 791.59 509.42 789.14 C 509.47 785.12 509.48 781.10 509.44 777.08 C 502.71 779.62 496.29 781.44 489.03 780.01 C 484.89 778.74 482.95 776.05 482.41 771.81 C 492.51 771.76 502.60 771.81 512.69 771.79 C 512.63 766.13 513.15 760.16 511.19 754.78 C 509.45 749.92 505.82 746.03 501.07 744.00 C 496.35 741.78 491.06 742.20 485.96 742.28 C 478.32 742.30 471.12 747.13 467.99 754.07 C 464.93 761.28 464.81 769.65 466.71 777.19 Z M 637.16 791.70 C 642.83 791.66 648.53 791.82 654.20 791.59 C 654.15 776.72 654.18 761.84 654.19 746.98 C 654.15 745.48 653.87 744.06 653.63 742.57 C 648.20 742.77 642.77 742.52 637.34 742.68 C 636.90 758.96 637.28 775.40 637.16 791.70 Z M 358.18 745.89 C 358.60 749.73 360.99 753.26 362.26 756.95 C 368.64 756.06 373.50 752.31 380.22 754.65 C 381.57 756.57 382.07 758.19 382.34 760.51 C 374.86 760.62 365.26 760.54 358.77 764.77 C 352.95 768.31 351.78 776.08 353.53 782.18 C 354.67 787.71 359.44 791.88 365.02 792.46 C 369.07 792.75 373.15 792.70 376.90 790.99 C 379.87 789.63 381.80 787.34 384.04 785.05 C 385.16 787.24 386.26 789.44 387.32 791.66 C 391.27 791.73 395.21 791.72 399.15 791.66 C 399.15 781.43 399.16 771.21 399.15 760.99 C 398.98 756.60 398.52 751.96 395.56 748.47 C 392.77 744.92 388.54 742.64 384.02 742.35 C 380.02 742.09 376.00 742.19 372.00 742.37 C 367.05 742.59 362.75 744.20 358.18 745.89 Z M 346.00 834.18 C 352.56 835.79 358.52 835.68 365.11 834.21 C 370.13 832.51 374.38 829.22 375.67 823.86 C 377.01 819.44 376.39 815.18 375.34 810.79 C 373.63 806.90 370.71 803.84 366.65 802.42 C 360.10 800.21 352.75 800.16 346.07 801.85 C 342.16 802.84 338.75 805.19 336.81 808.76 C 334.08 814.83 334.02 821.86 337.18 827.77 C 339.25 831.12 342.36 832.93 346.00 834.18 Z M 467.34 804.06 C 467.39 817.37 467.22 830.69 467.47 844.00 C 467.39 849.85 468.98 855.45 468.61 861.33 C 465.87 857.39 463.25 853.63 459.32 850.77 C 452.98 845.87 444.89 844.16 437.01 844.44 C 426.22 844.62 415.73 849.61 409.35 858.40 C 401.91 868.16 398.72 879.92 397.54 891.97 C 396.79 906.21 396.78 919.73 401.68 933.32 C 405.60 944.28 412.09 954.08 423.13 958.81 C 435.00 963.66 450.69 962.21 460.46 953.44 C 463.12 951.17 465.23 948.45 466.99 945.44 C 467.65 945.44 468.32 945.44 468.99 945.44 C 471.43 950.27 474.45 954.78 477.09 959.51 C 486.90 959.54 496.71 959.52 506.52 959.52 C 506.53 907.70 506.52 855.88 506.53 804.06 C 493.46 804.05 480.40 804.05 467.34 804.06 Z M 187.66 813.49 C 187.66 862.16 187.66 910.84 187.67 959.52 C 203.11 959.53 218.56 959.53 234.00 959.52 C 246.68 959.70 260.07 957.91 271.79 952.84 C 285.33 947.03 296.80 936.77 303.28 923.46 C 310.51 908.76 312.34 892.18 311.38 875.99 C 310.50 862.24 306.48 848.04 297.77 837.14 C 287.80 824.82 273.38 817.67 257.92 815.08 C 252.34 814.22 246.66 813.38 241.00 813.50 C 223.22 813.45 205.44 813.48 187.66 813.49 Z M 763.32 859.68 C 763.31 864.97 763.31 870.26 763.32 875.55 C 767.76 875.55 772.17 875.63 776.61 875.46 C 777.69 878.66 777.15 881.66 777.25 885.00 C 777.28 898.66 777.18 912.33 777.30 925.99 C 777.20 935.37 779.92 946.42 786.92 953.08 C 792.49 958.46 799.46 960.16 806.90 961.20 C 817.42 962.03 827.97 961.33 838.10 958.24 C 840.66 957.32 843.22 956.36 845.75 955.35 C 845.79 945.89 845.82 936.44 845.73 926.98 C 838.66 928.79 832.48 931.14 824.95 930.47 C 821.98 930.15 819.18 928.82 817.75 926.09 C 816.29 923.49 816.43 920.89 816.37 918.01 C 816.42 903.86 816.34 889.71 816.41 875.56 C 825.70 875.53 834.99 875.62 844.27 875.50 C 844.26 865.83 844.26 856.16 844.27 846.48 C 835.00 846.36 825.72 846.45 816.44 846.43 C 816.32 838.84 816.42 831.24 816.38 823.65 C 807.89 823.68 799.39 823.58 790.91 823.69 C 787.53 831.19 784.40 838.81 781.13 846.36 C 780.54 847.77 779.38 848.40 778.20 849.26 C 773.18 852.65 768.31 856.24 763.32 859.68 Z M 556.92 847.83 L 556.20 848.23 C 550.34 849.45 545.04 851.83 539.54 854.07 C 539.55 854.73 539.56 855.39 539.57 856.05 C 543.37 863.95 546.66 872.12 550.29 880.11 C 559.24 876.88 567.29 873.13 577.01 872.22 C 581.81 871.43 588.06 871.65 591.87 875.11 C 595.35 878.56 595.57 882.85 595.58 887.48 C 586.65 887.38 577.84 888.18 568.94 888.61 C 558.06 889.92 545.74 892.84 537.43 900.42 C 530.89 906.19 528.06 914.42 527.69 922.96 C 527.30 932.74 529.40 943.42 536.03 950.96 C 541.60 957.51 549.56 960.65 557.97 961.38 C 565.76 961.78 574.30 961.31 581.68 958.58 C 588.22 956.15 593.03 951.67 597.55 946.52 C 598.19 945.80 599.37 944.52 600.40 945.30 C 603.00 949.94 605.19 954.84 607.68 959.54 C 616.65 959.51 625.62 959.54 634.59 959.52 C 634.60 937.35 634.59 915.17 634.59 893.00 C 634.54 885.75 635.00 878.89 632.91 871.83 C 630.44 862.31 623.81 854.27 615.05 849.85 C 606.02 845.28 595.99 844.16 586.00 844.45 C 576.17 844.43 566.52 845.86 556.92 847.83 Z M 735.09 958.23 C 740.05 956.52 744.42 954.44 748.85 951.60 C 748.90 941.22 748.88 930.83 748.86 920.44 C 739.15 926.69 727.57 930.38 715.99 930.41 C 710.37 930.44 704.66 928.63 701.15 924.01 C 696.96 918.45 695.98 910.78 695.85 904.00 C 695.81 896.81 696.79 888.87 700.84 882.73 C 703.91 877.93 709.25 874.97 714.98 875.11 C 724.57 874.63 732.59 878.18 741.22 881.81 C 745.08 872.16 749.05 862.53 752.78 852.83 C 748.62 850.89 744.37 849.26 740.00 847.86 C 724.47 843.43 707.21 843.01 691.72 847.81 C 679.59 851.52 669.15 859.95 663.29 871.23 C 657.59 881.96 655.87 893.98 656.23 906.00 C 656.46 918.42 659.19 931.22 666.44 941.52 C 672.83 950.74 682.64 956.72 693.46 959.33 C 707.06 962.48 721.69 962.34 735.09 958.23 Z M 335.70 846.48 C 335.72 884.15 335.71 921.81 335.70 959.47 C 348.70 959.60 361.70 959.49 374.70 959.53 C 374.71 921.83 374.71 884.12 374.70 846.42 C 361.70 846.46 348.70 846.35 335.70 846.48 Z" id="p0" />
<path d="M 548.97 22.82 C 554.35 23.49 559.67 24.36 565.08 24.77 C 576.06 26.59 587.00 28.41 597.80 31.17 C 658.01 45.90 713.75 77.38 757.44 121.34 C 755.34 123.27 753.25 125.20 751.23 127.21 C 710.74 167.73 670.21 208.20 629.74 248.74 C 626.14 252.27 622.42 255.45 619.82 259.87 C 581.29 271.74 544.98 290.35 512.60 314.36 L 511.65 313.77 C 473.14 285.35 429.10 264.73 382.52 253.66 C 362.55 248.73 342.47 246.15 322.00 244.59 C 314.51 244.43 307.02 244.19 299.53 244.24 C 299.60 317.23 299.45 390.26 299.60 463.25 C 308.71 463.36 317.93 463.23 326.97 464.33 C 329.05 464.50 331.12 464.54 333.20 464.64 C 333.23 472.89 333.20 481.15 333.22 489.40 C 350.60 489.79 368.14 490.50 385.36 493.00 C 352.90 525.66 320.25 558.14 287.72 590.73 C 283.38 595.16 278.75 599.10 275.13 604.20 C 246.14 575.29 222.23 541.11 205.38 503.77 C 191.42 473.52 182.43 440.74 177.72 407.80 C 176.89 397.48 175.03 387.40 175.34 377.00 C 174.85 369.29 174.30 361.77 174.99 354.02 C 175.59 348.73 175.21 343.35 175.56 338.01 C 176.78 327.30 177.55 316.57 179.54 305.96 C 186.39 265.32 200.46 225.98 221.35 190.42 C 249.96 141.40 290.95 99.86 339.49 70.45 C 379.18 46.44 424.01 30.49 470.02 24.49 C 496.15 20.79 522.70 20.68 548.97 22.82 Z" id="p1" />
<path d="M 757.44 121.34 C 812.20 175.81 847.52 249.08 855.22 325.99 C 855.27 349.92 855.20 374.04 855.25 397.99 C 855.22 400.69 854.78 403.29 854.49 405.96 C 849.03 450.27 834.43 493.51 812.23 532.24 C 777.08 593.54 722.43 643.66 658.06 672.91 C 618.57 691.08 575.36 701.36 531.99 703.48 C 520.99 703.68 509.97 703.66 498.96 703.46 C 478.32 702.14 457.90 699.62 437.78 694.67 C 376.46 680.50 319.62 648.67 275.13 604.20 C 278.75 599.10 283.38 595.16 287.72 590.73 C 320.25 558.14 352.90 525.66 385.36 493.00 C 402.80 495.08 420.10 498.80 437.08 503.26 C 460.80 509.64 483.46 518.74 505.44 529.64 C 507.46 530.76 509.44 531.92 511.40 533.12 L 512.35 533.68 C 514.36 532.48 516.32 531.22 518.31 529.99 C 520.76 528.94 523.14 527.81 525.51 526.58 C 560.28 509.50 597.67 498.71 635.99 493.37 C 647.61 491.76 659.26 490.52 671.00 490.20 C 677.80 489.51 684.60 489.59 691.42 489.39 C 691.33 477.60 691.66 465.79 691.24 454.02 C 702.83 442.39 713.85 430.22 725.44 418.61 C 725.52 360.48 725.45 302.34 725.48 244.21 C 689.79 243.78 653.90 249.27 619.82 259.87 C 622.42 255.45 626.14 252.27 629.74 248.74 C 670.21 208.20 710.74 167.73 751.23 127.21 C 753.25 125.20 755.34 123.27 757.44 121.34 Z" id="p2" />
<path d="M 299.53 244.24 C 307.02 244.19 314.51 244.43 322.00 244.59 C 342.47 246.15 362.55 248.73 382.52 253.66 C 429.10 264.73 473.14 285.35 511.65 313.77 C 512.86 318.90 512.33 323.79 512.40 329.00 C 512.40 395.34 512.39 461.68 512.41 528.01 C 512.33 529.80 511.84 531.40 511.40 533.12 C 509.44 531.92 507.46 530.76 505.44 529.64 C 502.29 525.35 497.44 523.13 492.95 520.04 C 445.23 489.09 389.84 469.85 333.20 464.64 C 331.12 464.54 329.05 464.50 326.97 464.33 C 317.93 463.23 308.71 463.36 299.60 463.25 C 299.45 390.26 299.60 317.23 299.53 244.24 Z M 345.47 300.36 C 350.61 301.48 355.84 301.91 361.02 302.82 C 396.16 308.99 430.52 320.40 462.22 336.80 C 463.66 337.51 465.12 338.17 466.58 338.83 C 466.77 333.65 466.77 328.50 466.60 323.31 C 465.14 322.45 463.68 321.59 462.17 320.80 C 447.81 313.70 433.24 307.13 418.08 301.89 C 398.90 295.29 379.15 290.00 359.13 286.68 C 354.54 285.87 350.20 284.97 345.50 285.22 C 345.16 290.25 345.36 295.33 345.47 300.36 Z M 345.59 331.31 C 360.52 333.59 375.37 336.18 389.99 340.02 C 416.62 346.97 442.21 357.11 466.60 369.83 C 466.76 364.64 466.77 359.48 466.62 354.29 C 459.86 350.19 452.49 347.06 445.35 343.67 C 418.15 331.60 389.41 322.62 360.02 317.79 C 355.33 316.98 350.27 315.94 345.50 316.10 C 345.20 321.15 345.24 326.26 345.59 331.31 Z" id="p3" />
<path d="M 725.48 244.21 C 725.45 302.34 725.52 360.48 725.44 418.61 C 710.28 418.11 695.07 418.46 679.89 418.40 C 679.46 433.52 679.72 448.70 679.76 463.84 C 680.65 463.74 681.54 463.65 682.42 463.56 C 681.34 464.59 680.46 466.14 678.83 466.24 C 652.77 469.23 626.72 476.17 602.06 485.04 C 576.42 494.50 551.86 507.00 529.04 522.04 C 525.30 524.52 521.51 526.79 518.31 529.99 C 516.32 531.22 514.36 532.48 512.35 533.68 L 511.40 533.12 C 511.84 531.40 512.33 529.80 512.41 528.01 C 512.39 461.68 512.40 395.34 512.40 329.00 C 512.33 323.79 512.86 318.90 511.65 313.77 L 512.60 314.36 C 544.98 290.35 581.29 271.74 619.82 259.87 C 653.90 249.27 689.79 243.78 725.48 244.21 Z M 558.43 323.33 C 558.33 328.52 558.32 333.71 558.46 338.90 C 562.19 337.21 565.78 335.27 569.45 333.46 C 599.59 318.69 631.99 308.34 665.05 302.62 C 669.90 301.80 674.80 301.35 679.62 300.34 C 679.76 295.27 679.73 290.21 679.67 285.15 C 676.10 285.24 672.55 285.44 669.04 286.15 C 630.59 292.45 592.76 304.82 558.43 323.33 Z M 558.41 354.27 C 558.34 359.47 558.33 364.66 558.45 369.86 C 583.95 356.48 611.05 345.94 639.01 339.00 C 652.37 335.73 665.88 333.25 679.51 331.37 C 679.88 326.26 679.68 321.19 679.68 316.07 C 673.67 316.12 667.87 317.31 661.97 318.34 C 634.17 323.14 606.91 331.82 581.07 343.08 C 573.43 346.60 565.74 350.14 558.41 354.27 Z M 558.39 385.20 C 558.36 390.39 558.33 395.58 558.45 400.77 C 588.88 384.73 621.41 373.02 655.16 366.29 C 663.27 364.49 671.51 363.59 679.65 362.00 C 679.74 356.88 679.72 351.75 679.69 346.63 C 644.29 350.87 609.30 361.05 576.89 375.90 C 570.63 378.78 564.31 381.67 558.39 385.20 Z M 558.56 415.76 C 558.21 420.95 558.36 426.12 558.46 431.31 C 561.26 430.26 563.95 429.00 566.59 427.60 C 583.32 419.01 600.87 412.29 618.72 406.45 C 619.93 401.86 618.98 395.77 619.17 390.91 C 617.49 391.30 615.82 391.68 614.18 392.18 C 594.94 398.41 576.51 406.49 558.56 415.76 Z" id="p4" />
<path d="M 345.50 285.22 C 350.20 284.97 354.54 285.87 359.13 286.68 C 379.15 290.00 398.90 295.29 418.08 301.89 C 433.24 307.13 447.81 313.70 462.17 320.80 C 463.68 321.59 465.14 322.45 466.60 323.31 C 466.77 328.50 466.77 333.65 466.58 338.83 C 465.12 338.17 463.66 337.51 462.22 336.80 C 430.52 320.40 396.16 308.99 361.02 302.82 C 355.84 301.91 350.61 301.48 345.47 300.36 C 345.36 295.33 345.16 290.25 345.50 285.22 Z" id="p5" />
<path d="M 679.67 285.15 C 679.73 290.21 679.76 295.27 679.62 300.34 C 674.80 301.35 669.90 301.80 665.05 302.62 C 631.99 308.34 599.59 318.69 569.45 333.46 C 565.78 335.27 562.19 337.21 558.46 338.90 C 558.32 333.71 558.33 328.52 558.43 323.33 C 592.76 304.82 630.59 292.45 669.04 286.15 C 672.55 285.44 676.10 285.24 679.67 285.15 Z" id="p6" />
<path d="M 345.50 316.10 C 350.27 315.94 355.33 316.98 360.02 317.79 C 389.41 322.62 418.15 331.60 445.35 343.67 C 452.49 347.06 459.86 350.19 466.62 354.29 C 466.77 359.48 466.76 364.64 466.60 369.83 C 442.21 357.11 416.62 346.97 389.99 340.02 C 375.37 336.18 360.52 333.59 345.59 331.31 C 345.24 326.26 345.20 321.15 345.50 316.10 Z" id="p7" />
<path d="M 679.68 316.07 C 679.68 321.19 679.88 326.26 679.51 331.37 C 665.88 333.25 652.37 335.73 639.01 339.00 C 611.05 345.94 583.95 356.48 558.45 369.86 C 558.33 364.66 558.34 359.47 558.41 354.27 C 565.74 350.14 573.43 346.60 581.07 343.08 C 606.91 331.82 634.17 323.14 661.97 318.34 C 667.87 317.31 673.67 316.12 679.68 316.07 Z" id="p8" />
<path d="M 679.69 346.63 C 679.72 351.75 679.74 356.88 679.65 362.00 C 671.51 363.59 663.27 364.49 655.16 366.29 C 621.41 373.02 588.88 384.73 558.45 400.77 C 558.33 395.58 558.36 390.39 558.39 385.20 C 564.31 381.67 570.63 378.78 576.89 375.90 C 609.30 361.05 644.29 350.87 679.69 346.63 Z" id="p9" />
<path d="M 619.17 390.91 C 618.98 395.77 619.93 401.86 618.72 406.45 C 600.87 412.29 583.32 419.01 566.59 427.60 C 563.95 429.00 561.26 430.26 558.46 431.31 C 558.36 426.12 558.21 420.95 558.56 415.76 C 576.51 406.49 594.94 398.41 614.18 392.18 C 615.82 391.68 617.49 391.30 619.17 390.91 Z" id="p10" />
<path d="M 679.89 418.40 C 695.07 418.46 710.28 418.11 725.44 418.61 C 713.85 430.22 702.83 442.39 691.24 454.02 C 688.25 457.15 685.26 460.28 682.42 463.56 C 681.54 463.65 680.65 463.74 679.76 463.84 C 679.72 448.70 679.46 433.52 679.89 418.40 Z" id="p11" />
<path d="M 691.24 454.02 C 691.66 465.79 691.33 477.60 691.42 489.39 C 684.60 489.59 677.80 489.51 671.00 490.20 C 659.26 490.52 647.61 491.76 635.99 493.37 C 597.67 498.71 560.28 509.50 525.51 526.58 C 523.14 527.81 520.76 528.94 518.31 529.99 C 521.51 526.79 525.30 524.52 529.04 522.04 C 551.86 507.00 576.42 494.50 602.06 485.04 C 626.72 476.17 652.77 469.23 678.83 466.24 C 680.46 466.14 681.34 464.59 682.42 463.56 C 685.26 460.28 688.25 457.15 691.24 454.02 Z" id="p12" />
<path d="M 333.20 464.64 C 389.84 469.85 445.23 489.09 492.95 520.04 C 497.44 523.13 502.29 525.35 505.44 529.64 C 483.46 518.74 460.80 509.64 437.08 503.26 C 420.10 498.80 402.80 495.08 385.36 493.00 C 368.14 490.50 350.60 489.79 333.22 489.40 C 333.20 481.15 333.23 472.89 333.20 464.64 Z" id="p13" />
<path d="M 640.73 723.71 C 643.18 723.12 647.85 723.12 650.31 723.67 C 656.34 725.83 656.08 736.25 649.60 737.56 C 646.23 737.78 640.67 738.68 638.37 735.56 C 635.33 732.07 636.27 725.63 640.73 723.71 Z" id="p14" />
<path d="M 438.90 724.47 C 444.54 724.46 450.18 724.48 455.82 724.46 C 455.89 746.87 455.83 769.29 455.85 791.70 C 451.58 791.70 447.32 791.74 443.06 791.64 C 441.88 789.45 440.62 787.32 439.27 785.24 C 437.42 787.52 435.77 789.71 433.06 791.02 C 427.18 793.92 419.51 792.90 414.98 788.00 C 410.97 783.72 409.89 778.60 408.82 773.04 C 408.31 766.14 408.49 759.49 411.01 752.96 C 412.48 749.19 415.23 745.92 418.65 743.77 C 423.20 741.39 428.86 741.31 433.54 743.43 C 436.23 744.85 437.87 747.06 439.74 749.37 C 438.59 741.05 438.93 732.84 438.90 724.47 Z M 437.16 778.33 C 440.60 774.52 440.46 769.81 440.25 764.97 C 439.93 762.05 439.55 758.81 437.04 756.90 C 435.21 755.33 432.94 755.44 430.69 755.76 C 426.20 757.94 425.66 763.58 425.64 767.99 C 425.68 771.55 426.49 776.98 430.18 778.67 C 432.67 780.01 434.69 778.88 437.16 778.33 Z" id="p15" />
<path d="M 706.48 724.48 C 712.12 724.47 717.76 724.46 723.41 724.48 C 723.43 732.77 723.63 740.99 722.61 749.24 C 725.12 746.90 727.42 743.67 730.87 742.77 C 736.51 741.18 743.83 741.64 748.51 745.51 C 752.84 749.17 754.33 754.49 754.37 760.00 C 754.40 770.54 754.34 781.09 754.39 791.63 C 748.74 791.76 743.07 791.68 737.41 791.70 C 737.40 782.80 737.43 773.90 737.41 765.00 C 737.31 761.54 737.00 758.02 734.02 755.76 C 731.80 755.07 728.58 755.04 726.88 756.88 C 724.12 759.21 723.60 763.61 723.47 767.00 C 723.35 775.22 723.45 783.45 723.43 791.68 C 717.77 791.71 712.11 791.72 706.45 791.68 C 706.48 769.28 706.42 746.88 706.48 724.48 Z" id="p16" />
<path d="M 293.54 728.50 C 298.23 743.57 302.32 758.82 306.90 773.92 C 311.21 758.82 315.93 743.80 319.86 728.61 C 327.44 728.42 335.03 728.57 342.62 728.51 C 342.70 749.57 342.63 770.64 342.65 791.70 C 337.47 791.71 332.29 791.70 327.11 791.70 C 327.11 782.13 327.11 772.56 327.11 762.99 C 327.07 757.19 327.65 751.43 327.50 745.62 C 324.40 756.78 321.21 767.92 318.22 779.11 C 316.94 783.30 315.95 787.56 314.60 791.73 C 309.25 791.69 303.89 791.68 298.53 791.73 C 294.57 778.57 290.96 765.30 287.05 752.12 C 286.45 750.07 286.16 747.93 285.72 745.85 C 285.24 753.18 285.69 760.63 286.20 767.97 C 286.27 775.83 286.17 783.70 286.24 791.56 C 281.08 791.80 275.90 791.73 270.74 791.62 C 270.78 770.61 270.74 749.59 270.76 728.58 C 278.35 728.45 285.95 728.57 293.54 728.50 Z" id="p17" />
<path d="M 541.05 728.52 C 546.43 728.55 551.82 728.46 557.20 728.60 C 560.11 744.78 564.49 760.71 567.10 776.94 C 568.88 764.06 572.11 751.63 575.00 738.98 C 575.85 735.46 576.39 731.92 577.57 728.47 C 582.80 728.58 588.03 728.46 593.26 728.57 C 596.49 744.65 600.99 760.68 603.22 776.91 C 605.23 764.21 608.46 751.58 611.08 738.98 C 611.91 735.39 612.38 731.88 613.56 728.47 C 618.96 728.58 624.36 728.49 629.75 728.53 C 624.88 749.64 619.26 770.60 614.26 791.69 C 607.45 791.65 600.62 791.86 593.82 791.55 C 593.60 789.71 593.31 787.90 592.89 786.09 C 590.34 773.68 587.05 761.35 585.32 748.84 C 583.64 760.66 580.47 772.33 578.09 784.04 C 577.51 786.59 576.92 789.14 576.37 791.70 C 569.55 791.61 562.70 791.92 555.89 791.51 C 555.72 790.19 555.50 788.88 555.24 787.57 C 550.78 769.44 546.16 751.38 541.69 733.25 C 541.37 731.70 541.22 730.09 541.05 728.52 Z" id="p18" />
<path d="M 673.98 733.27 C 677.66 732.56 681.65 732.92 685.36 733.27 C 685.30 736.39 685.30 739.51 685.31 742.64 C 689.10 742.65 692.90 742.69 696.69 742.54 C 697.69 746.67 697.04 751.22 697.20 755.47 C 693.24 755.52 689.28 755.51 685.31 755.51 C 685.32 761.67 685.28 767.84 685.31 774.01 C 685.52 775.69 684.96 777.20 686.58 778.25 C 689.35 780.61 694.56 778.13 697.83 777.99 C 697.86 782.03 697.89 786.06 697.73 790.09 C 694.17 791.26 690.80 792.44 686.99 792.54 C 682.66 792.66 678.34 792.80 674.49 790.49 C 670.48 788.08 668.43 783.61 668.37 779.03 C 668.18 771.22 668.33 763.39 668.30 755.58 C 666.31 755.54 664.33 755.52 662.34 755.50 C 662.32 753.14 662.31 750.78 662.33 748.42 C 664.73 746.59 667.71 745.10 669.77 742.90 C 671.42 739.83 672.31 736.35 673.98 733.27 Z" id="p19" />
<path d="M 485.96 742.28 C 491.06 742.20 496.35 741.78 501.07 744.00 C 505.82 746.03 509.45 749.92 511.19 754.78 C 513.15 760.16 512.63 766.13 512.69 771.79 C 502.60 771.81 492.51 771.76 482.41 771.81 C 482.95 776.05 484.89 778.74 489.03 780.01 C 496.29 781.44 502.71 779.62 509.44 777.08 C 509.48 781.10 509.47 785.12 509.42 789.14 C 504.10 791.59 498.85 792.64 493.00 792.59 C 486.06 792.80 479.20 791.76 473.64 787.31 C 470.20 784.72 468.24 781.13 466.71 777.19 C 464.81 769.65 464.93 761.28 467.99 754.07 C 471.12 747.13 478.32 742.30 485.96 742.28 Z M 483.15 761.30 C 487.89 760.95 493.18 762.04 497.72 760.59 C 497.07 758.92 496.58 756.89 495.38 755.54 C 492.68 752.72 487.35 752.70 484.84 755.82 C 483.20 757.40 483.47 759.21 483.15 761.30 Z" id="p20" />
<path d="M 637.34 742.68 C 642.77 742.52 648.20 742.77 653.63 742.57 C 653.87 744.06 654.15 745.48 654.19 746.98 C 654.18 761.84 654.15 776.72 654.20 791.59 C 648.53 791.82 642.83 791.66 637.16 791.70 C 637.28 775.40 636.90 758.96 637.34 742.68 Z" id="p21" />
<path d="M 372.00 742.37 C 376.00 742.19 380.02 742.09 384.02 742.35 C 388.54 742.64 392.77 744.92 395.56 748.47 C 398.52 751.96 398.98 756.60 399.15 760.99 C 399.16 771.21 399.15 781.43 399.15 791.66 C 395.21 791.72 391.27 791.73 387.32 791.66 C 386.26 789.44 385.16 787.24 384.04 785.05 C 381.80 787.34 379.87 789.63 376.90 790.99 C 373.15 792.70 369.07 792.75 365.02 792.46 C 359.44 791.88 354.67 787.71 353.53 782.18 C 351.78 776.08 352.95 768.31 358.77 764.77 C 365.26 760.54 374.86 760.62 382.34 760.51 C 382.07 758.19 381.57 756.57 380.22 754.65 C 373.50 752.31 368.64 756.06 362.26 756.95 C 360.99 753.26 358.60 749.73 358.18 745.89 C 362.75 744.20 367.05 742.59 372.00 742.37 Z M 370.56 779.21 C 373.76 781.36 378.41 781.00 380.85 777.89 C 382.62 775.73 382.17 772.44 382.30 769.82 C 379.11 770.15 374.55 769.83 371.96 771.93 C 369.50 773.86 370.41 776.54 370.56 779.21 Z" id="p22" />
<path d="M 495.38 755.54 C 496.58 756.89 497.07 758.92 497.72 760.59 C 493.18 762.04 487.89 760.95 483.15 761.30 C 483.47 759.21 483.20 757.40 484.84 755.82 C 487.35 752.70 492.68 752.72 495.38 755.54 Z" id="p23" />
<path d="M 430.69 755.76 C 432.94 755.44 435.21 755.33 437.04 756.90 C 439.55 758.81 439.93 762.05 440.25 764.97 C 440.46 769.81 440.60 774.52 437.16 778.33 C 434.69 778.88 432.67 780.01 430.18 778.67 C 426.49 776.98 425.68 771.55 425.64 767.99 C 425.66 763.58 426.20 757.94 430.69 755.76 Z" id="p24" />
<path d="M 382.30 769.82 C 382.17 772.44 382.62 775.73 380.85 777.89 C 378.41 781.00 373.76 781.36 370.56 779.21 C 370.41 776.54 369.50 773.86 371.96 771.93 C 374.55 769.83 379.11 770.15 382.30 769.82 Z" id="p25" />
<path d="M 366.65 802.42 C 370.71 803.84 373.63 806.90 375.34 810.79 C 376.39 815.18 377.01 819.44 375.67 823.86 C 374.38 829.22 370.13 832.51 365.11 834.21 C 358.52 835.68 352.56 835.79 346.00 834.18 C 342.36 832.93 339.25 831.12 337.18 827.77 C 334.02 821.86 334.08 814.83 336.81 808.76 C 338.75 805.19 342.16 802.84 346.07 801.85 C 352.75 800.16 360.10 800.21 366.65 802.42 Z" id="p26" />
<path d="M 467.34 804.06 C 480.40 804.05 493.46 804.05 506.53 804.06 C 506.52 855.88 506.53 907.70 506.52 959.52 C 496.71 959.52 486.90 959.54 477.09 959.51 C 474.45 954.78 471.43 950.27 468.99 945.44 C 468.32 945.44 467.65 945.44 466.99 945.44 C 465.23 948.45 463.12 951.17 460.46 953.44 C 450.69 962.21 435.00 963.66 423.13 958.81 C 412.09 954.08 405.60 944.28 401.68 933.32 C 396.78 919.73 396.79 906.21 397.54 891.97 C 398.72 879.92 401.91 868.16 409.35 858.40 C 415.73 849.61 426.22 844.62 437.01 844.44 C 444.89 844.16 452.98 845.87 459.32 850.77 C 463.25 853.63 465.87 857.39 468.61 861.33 C 468.98 855.45 467.39 849.85 467.47 844.00 C 467.22 830.69 467.39 817.37 467.34 804.06 Z M 468.24 921.14 C 468.53 920.11 468.83 919.08 469.14 918.06 C 470.84 910.70 470.63 903.43 470.20 895.92 C 469.36 889.92 468.56 883.48 463.65 879.33 C 457.60 874.33 446.98 874.23 442.16 881.05 C 437.10 887.81 436.34 897.86 436.56 906.00 C 436.79 912.92 438.10 921.65 443.28 926.72 C 447.51 931.14 454.26 931.32 459.77 929.66 C 463.95 928.35 466.66 925.10 468.24 921.14 Z" id="p27" />
<path d="M 241.00 813.50 C 246.66 813.38 252.34 814.22 257.92 815.08 C 273.38 817.67 287.80 824.82 297.77 837.14 C 306.48 848.04 310.50 862.24 311.38 875.99 C 312.34 892.18 310.51 908.76 303.28 923.46 C 296.80 936.77 285.33 947.03 271.79 952.84 C 260.07 957.91 246.68 959.70 234.00 959.52 C 218.56 959.53 203.11 959.53 187.67 959.52 C 187.66 910.84 187.66 862.16 187.66 813.49 C 205.44 813.48 223.22 813.45 241.00 813.50 Z M 227.36 927.26 C 233.78 927.42 239.74 927.19 246.10 926.20 C 253.81 924.40 260.41 920.48 264.48 913.52 C 270.28 903.43 270.96 890.36 270.43 879.00 C 269.81 870.47 268.00 861.30 262.37 854.56 C 257.58 848.92 250.26 846.22 243.04 845.59 C 237.81 845.26 232.54 845.47 227.31 845.41 C 227.33 872.69 227.22 899.98 227.36 927.26 Z" id="p28" />
<path d="M 790.91 823.69 C 799.39 823.58 807.89 823.68 816.38 823.65 C 816.42 831.24 816.32 838.84 816.44 846.43 C 825.72 846.45 835.00 846.36 844.27 846.48 C 844.26 856.16 844.26 865.83 844.27 875.50 C 834.99 875.62 825.70 875.53 816.41 875.56 C 816.34 889.71 816.42 903.86 816.37 918.01 C 816.43 920.89 816.29 923.49 817.75 926.09 C 819.18 928.82 821.98 930.15 824.95 930.47 C 832.48 931.14 838.66 928.79 845.73 926.98 C 845.82 936.44 845.79 945.89 845.75 955.35 C 843.22 956.36 840.66 957.32 838.10 958.24 C 827.97 961.33 817.42 962.03 806.90 961.20 C 799.46 960.16 792.49 958.46 786.92 953.08 C 779.92 946.42 777.20 935.37 777.30 925.99 C 777.18 912.33 777.28 898.66 777.25 885.00 C 777.15 881.66 777.69 878.66 776.61 875.46 C 772.17 875.63 767.76 875.55 763.32 875.55 C 763.31 870.26 763.31 864.97 763.32 859.68 C 768.31 856.24 773.18 852.65 778.20 849.26 C 779.38 848.40 780.54 847.77 781.13 846.36 C 784.40 838.81 787.53 831.19 790.91 823.69 Z" id="p29" />
<path d="M 586.00 844.45 C 595.99 844.16 606.02 845.28 615.05 849.85 C 623.81 854.27 630.44 862.31 632.91 871.83 C 635.00 878.89 634.54 885.75 634.59 893.00 C 634.59 915.17 634.60 937.35 634.59 959.52 C 625.62 959.54 616.65 959.51 607.68 959.54 C 605.19 954.84 603.00 949.94 600.40 945.30 C 599.37 944.52 598.19 945.80 597.55 946.52 C 593.03 951.67 588.22 956.15 581.68 958.58 C 574.30 961.31 565.76 961.78 557.97 961.38 C 549.56 960.65 541.60 957.51 536.03 950.96 C 529.40 943.42 527.30 932.74 527.69 922.96 C 528.06 914.42 530.89 906.19 537.43 900.42 C 545.74 892.84 558.06 889.92 568.94 888.61 C 577.84 888.18 586.65 887.38 595.58 887.48 C 595.57 882.85 595.35 878.56 591.87 875.11 C 588.06 871.65 581.81 871.43 577.01 872.22 C 567.29 873.13 559.24 876.88 550.29 880.11 C 546.66 872.12 543.37 863.95 539.57 856.05 C 539.56 855.39 539.55 854.73 539.54 854.07 C 545.04 851.83 550.34 849.45 556.20 848.23 L 556.92 847.83 C 566.52 845.86 576.17 844.43 586.00 844.45 Z M 595.67 909.19 C 588.26 909.39 579.44 908.62 572.96 912.89 C 567.55 916.28 566.29 923.69 568.79 929.25 C 570.84 933.10 574.98 933.95 579.00 933.92 C 586.07 934.05 593.48 929.22 595.28 922.23 C 595.98 917.97 595.58 913.50 595.67 909.19 Z" id="p30" />
<path d="M 740.00 847.86 C 744.37 849.26 748.62 850.89 752.78 852.83 C 749.05 862.53 745.08 872.16 741.22 881.81 C 732.59 878.18 724.57 874.63 714.98 875.11 C 709.25 874.97 703.91 877.93 700.84 882.73 C 696.79 888.87 695.81 896.81 695.85 904.00 C 695.98 910.78 696.96 918.45 701.15 924.01 C 704.66 928.63 710.37 930.44 715.99 930.41 C 727.57 930.38 739.15 926.69 748.86 920.44 C 748.88 930.83 748.90 941.22 748.85 951.60 C 744.42 954.44 740.05 956.52 735.09 958.23 C 721.69 962.34 707.06 962.48 693.46 959.33 C 682.64 956.72 672.83 950.74 666.44 941.52 C 659.19 931.22 656.46 918.42 656.23 906.00 C 655.87 893.98 657.59 881.96 663.29 871.23 C 669.15 859.95 679.59 851.52 691.72 847.81 C 707.21 843.01 724.47 843.43 740.00 847.86 Z" id="p31" />
<path d="M 227.31 845.41 C 232.54 845.47 237.81 845.26 243.04 845.59 C 250.26 846.22 257.58 848.92 262.37 854.56 C 268.00 861.30 269.81 870.47 270.43 879.00 C 270.96 890.36 270.28 903.43 264.48 913.52 C 260.41 920.48 253.81 924.40 246.10 926.20 C 239.74 927.19 233.78 927.42 227.36 927.26 C 227.22 899.98 227.33 872.69 227.31 845.41 Z" id="p32" />
<path d="M 374.70 846.42 C 374.71 884.12 374.71 921.83 374.70 959.53 C 361.70 959.49 348.70 959.60 335.70 959.47 C 335.71 921.81 335.72 884.15 335.70 846.48 C 348.70 846.35 361.70 846.46 374.70 846.42 Z" id="p33" />
<path d="M 463.65 879.33 C 468.56 883.48 469.36 889.92 470.20 895.92 C 470.63 903.43 470.84 910.70 469.14 918.06 C 468.83 919.08 468.53 920.11 468.24 921.14 C 466.66 925.10 463.95 928.35 459.77 929.66 C 454.26 931.32 447.51 931.14 443.28 926.72 C 438.10 921.65 436.79 912.92 436.56 906.00 C 436.34 897.86 437.10 887.81 442.16 881.05 C 446.98 874.23 457.60 874.33 463.65 879.33 Z" id="p34" />
<path d="M 595.67 909.19 C 595.58 913.50 595.98 917.97 595.28 922.23 C 593.48 929.22 586.07 934.05 579.00 933.92 C 574.98 933.95 570.84 933.10 568.79 929.25 C 566.29 923.69 567.55 916.28 572.96 912.89 C 579.44 908.62 588.26 909.39 595.67 909.19 Z" id="p35" />
</defs>
<g stroke-width="10pt">
<use stroke="#ffffff" xlink:href="#p0" />
<use stroke="#e03400" xlink:href="#p1" />
<use stroke="#ce2e00" xlink:href="#p2" />
<use stroke="#ffffff" xlink:href="#p3" />
<use stroke="#dcdcdc" xlink:href="#p4" />
<use stroke="#dcdcdc" xlink:href="#p5" />
<use stroke="#aaaaaa" xlink:href="#p6" />
<use stroke="#dcdcdc" xlink:href="#p7" />
<use stroke="#aaaaaa" xlink:href="#p8" />
<use stroke="#aaaaaa" xlink:href="#p9" />
<use stroke="#aaaaaa" xlink:href="#p10" />
<use stroke="#ffffff" xlink:href="#p11" />
<use stroke="#aaaaaa" xlink:href="#p12" />
<use stroke="#dcdcdc" xlink:href="#p13" />
<use stroke="#000000" xlink:href="#p14" />
<use stroke="#000000" xlink:href="#p15" />
<use stroke="#000000" xlink:href="#p16" />
<use stroke="#000000" xlink:href="#p17" />
<use stroke="#000000" xlink:href="#p18" />
<use stroke="#000000" xlink:href="#p19" />
<use stroke="#000000" xlink:href="#p20" />
<use stroke="#000000" xlink:href="#p21" />
<use stroke="#000000" xlink:href="#p22" />
<use stroke="#ffffff" xlink:href="#p23" />
<use stroke="#ffffff" xlink:href="#p24" />
<use stroke="#ffffff" xlink:href="#p25" />
<use stroke="#000000" xlink:href="#p26" />
<use stroke="#000000" xlink:href="#p27" />
<use stroke="#000000" xlink:href="#p28" />
<use stroke="#000000" xlink:href="#p29" />
<use stroke="#000000" xlink:href="#p30" />
<use stroke="#000000" xlink:href="#p31" />
<use stroke="#ffffff" xlink:href="#p32" />
<use stroke="#000000" xlink:href="#p33" />
<use stroke="#ffffff" xlink:href="#p34" />
<use stroke="#ffffff" xlink:href="#p35" />
</g>
<g>
<use fill="#ffffff" xlink:href="#p0" />
<use fill="#e03400" xlink:href="#p1" />
<use fill="#ce2e00" xlink:href="#p2" />
<use fill="#ffffff" xlink:href="#p3" />
<use fill="#dcdcdc" xlink:href="#p4" />
<use fill="#dcdcdc" xlink:href="#p5" />
<use fill="#aaaaaa" xlink:href="#p6" />
<use fill="#dcdcdc" xlink:href="#p7" />
<use fill="#aaaaaa" xlink:href="#p8" />
<use fill="#aaaaaa" xlink:href="#p9" />
<use fill="#aaaaaa" xlink:href="#p10" />
<use fill="#ffffff" xlink:href="#p11" />
<use fill="#aaaaaa" xlink:href="#p12" />
<use fill="#dcdcdc" xlink:href="#p13" />
<use fill="#000000" xlink:href="#p14" />
<use fill="#000000" xlink:href="#p15" />
<use fill="#000000" xlink:href="#p16" />
<use fill="#000000" xlink:href="#p17" />
<use fill="#000000" xlink:href="#p18" />
<use fill="#000000" xlink:href="#p19" />
<use fill="#000000" xlink:href="#p20" />
<use fill="#000000" xlink:href="#p21" />
<use fill="#000000" xlink:href="#p22" />
<use fill="#ffffff" xlink:href="#p23" />
<use fill="#ffffff" xlink:href="#p24" />
<use fill="#ffffff" xlink:href="#p25" />
<use fill="#000000" xlink:href="#p26" />
<use fill="#000000" xlink:href="#p27" />
<use fill="#000000" xlink:href="#p28" />
<use fill="#000000" xlink:href="#p29" />
<use fill="#000000" xlink:href="#p30" />
<use fill="#000000" xlink:href="#p31" />
<use fill="#ffffff" xlink:href="#p32" />
<use fill="#000000" xlink:href="#p33" />
<use fill="#ffffff" xlink:href="#p34" />
<use fill="#ffffff" xlink:href="#p35" />
</g>
</svg>