<?xml version="1.0" encoding="UTF-8" standalone="no"?>
<!DOCTYPE svg PUBLIC "-//W3C//DTD SVG 1.1//EN" "http://www.w3.org/Graphics/SVG/1.1/DTD/svg11.dtd">
<svg xmlns="http://www.w3.org/2000/svg" version="1.1" viewBox="0 0 176 62" width="176.0pt" height="62.0pt" xmlns:xlink="http://www.w3.org/1999/xlink">
<defs>
<path d="M 0.00 0.00 L 176.00 0.00 L 176.00 62.00 L 0.00 62.00 L 0.00 0.00 Z M 11.51 52.12 C 19.89 60.37 32.56 62.86 43.48 58.48 C 52.17 54.96 58.99 47.22 61.15 38.06 C 63.75 28.21 60.59 17.35 53.45 10.16 C 43.85 0.21 27.68 -1.50 16.18 6.15 C 5.40 13.07 0.23 26.76 3.83 39.09 C 5.20 44.06 7.97 48.41 11.51 52.12 Z M 140.49 10.00 C 140.55 11.71 140.63 13.43 140.72 15.14 C 138.53 14.38 137.17 14.26 134.88 14.62 C 133.79 18.06 133.75 19.98 134.87 23.42 C 136.84 23.65 138.51 23.57 140.46 23.14 C 141.29 23.60 142.13 24.04 142.98 24.47 C 143.04 19.65 142.99 14.82 143.00 10.00 L 140.49 10.00 Z M 150.63 10.00 C 150.63 14.78 150.61 19.57 150.66 24.35 C 151.46 23.97 152.26 23.59 153.06 23.22 C 155.79 24.11 156.90 23.59 159.29 22.27 C 159.05 19.74 160.05 16.10 157.45 14.58 C 156.11 13.76 155.10 14.52 153.78 14.90 L 152.99 15.19 C 153.03 13.46 153.06 11.73 153.08 10.00 L 150.63 10.00 Z M 67.80 10.84 C 67.80 15.23 67.80 19.61 67.80 24.00 L 70.21 24.00 C 70.18 22.46 70.14 20.92 70.09 19.37 C 72.13 18.74 74.63 18.58 76.05 16.85 C 76.29 15.12 76.77 13.08 74.97 12.03 C 72.99 10.86 70.05 11.04 67.80 10.84 Z M 81.33 14.26 C 77.05 15.25 76.72 21.54 80.48 23.38 C 83.68 25.00 87.49 22.68 87.21 19.00 C 87.47 15.81 84.32 13.42 81.33 14.26 Z M 88.34 13.40 C 89.05 16.99 90.12 20.48 91.07 24.01 C 91.97 24.00 92.87 24.00 93.77 24.00 C 94.34 21.23 94.99 18.49 95.65 15.74 C 96.39 18.48 96.83 21.36 97.85 24.00 L 100.06 24.00 C 101.50 20.62 102.24 16.93 103.21 13.39 C 99.31 14.00 99.83 18.92 98.78 21.89 C 98.28 19.21 97.70 16.56 97.07 13.91 C 96.14 13.97 95.21 14.02 94.27 14.07 C 93.66 16.71 93.03 19.33 92.49 21.98 C 91.61 19.10 92.24 13.83 88.34 13.40 Z M 115.74 13.33 C 115.57 16.89 115.59 20.44 115.60 24.00 L 118.00 24.00 C 118.05 21.85 117.93 19.59 118.38 17.49 C 119.37 16.86 120.38 16.27 121.43 15.73 C 121.46 15.03 121.50 14.33 121.53 13.63 C 120.35 14.27 119.18 14.92 118.01 15.57 C 117.26 14.83 116.50 14.08 115.74 13.33 Z M 160.16 13.56 C 161.26 17.09 163.02 20.45 163.89 24.03 C 163.38 25.55 161.01 26.59 160.02 27.85 C 161.76 27.44 164.18 28.08 165.15 26.22 C 167.31 22.25 168.56 17.72 170.13 13.49 C 169.24 13.82 168.36 14.17 167.49 14.55 C 166.42 16.87 165.87 19.46 165.21 21.92 C 164.45 19.39 163.80 16.76 162.75 14.32 L 160.16 13.56 Z M 113.11 21.96 C 111.21 21.92 109.30 21.92 107.39 21.90 C 106.92 21.16 106.46 20.41 105.99 19.67 C 108.38 19.58 110.78 19.53 113.17 19.45 C 112.03 16.46 112.39 14.83 108.75 14.23 L 108.40 14.13 C 103.38 14.31 102.21 21.24 106.47 23.35 C 109.30 24.68 110.86 23.68 113.11 21.96 Z M 132.11 21.96 C 130.21 21.92 128.30 21.92 126.39 21.90 C 125.92 21.16 125.46 20.41 124.99 19.67 C 127.38 19.58 129.78 19.53 132.17 19.45 C 131.73 18.05 131.22 16.68 130.64 15.34 C 129.67 14.93 128.69 14.56 127.69 14.23 L 126.92 13.98 L 126.24 14.42 C 121.74 15.92 121.72 22.23 126.19 23.62 C 128.75 24.62 130.13 23.36 132.11 21.96 Z M 92.78 28.48 C 92.73 29.80 92.70 31.13 92.69 32.45 C 94.43 32.08 96.13 32.78 97.24 31.16 L 97.17 28.84 C 95.73 28.27 94.29 28.37 92.78 28.48 Z M 112.93 28.00 C 112.93 31.22 113.08 34.38 113.63 37.56 C 111.19 36.06 109.20 34.53 106.18 35.53 C 102.58 36.64 101.49 40.61 101.68 44.00 C 101.66 47.48 103.26 51.13 107.04 51.70 C 109.77 52.20 111.36 50.67 113.41 49.25 C 113.68 50.16 113.95 51.07 114.22 51.99 C 115.31 51.99 116.40 52.00 117.48 52.01 C 117.48 44.00 117.48 36.00 117.48 28.00 C 115.96 28.00 114.45 28.00 112.93 28.00 Z M 68.94 28.97 C 68.94 36.66 68.94 44.35 68.94 52.04 C 74.67 51.87 82.51 52.57 85.96 46.90 C 88.75 41.91 88.15 33.46 82.42 30.65 C 78.51 28.72 73.21 29.03 68.94 28.97 Z M 158.14 34.84 C 157.21 35.95 156.24 37.03 155.30 38.13 L 158.10 38.41 C 158.25 42.06 157.57 46.48 159.00 49.89 C 160.80 52.61 164.83 51.57 167.53 51.34 C 167.59 50.31 167.65 49.28 167.70 48.25 C 165.79 48.13 164.09 48.96 162.71 47.27 C 162.28 44.34 162.53 41.28 162.50 38.31 C 164.14 38.32 165.78 38.33 167.42 38.34 C 167.41 37.23 167.39 36.11 167.38 35.00 C 165.77 35.00 164.16 35.00 162.55 35.00 C 162.48 33.61 162.39 32.22 162.31 30.83 C 160.35 31.83 159.36 33.10 158.14 34.84 Z M 92.73 35.00 C 92.73 40.67 92.73 46.33 92.73 52.00 C 94.20 52.00 95.66 52.00 97.13 52.00 C 97.13 46.33 97.13 40.67 97.13 35.00 C 95.66 35.00 94.20 35.00 92.73 35.00 Z M 123.26 36.37 C 123.67 37.37 124.08 38.37 124.49 39.36 C 126.37 38.94 128.59 38.08 130.53 38.39 C 131.74 38.92 132.25 40.74 132.97 41.79 C 129.99 42.44 126.33 42.14 123.58 43.50 C 121.38 44.75 121.40 46.81 121.85 49.04 C 122.74 51.37 125.70 52.08 127.91 51.72 C 129.80 51.43 131.34 50.20 132.93 49.22 C 133.23 50.15 133.53 51.08 133.84 52.00 C 134.79 52.00 135.74 52.00 136.69 52.00 C 136.62 47.85 136.96 43.62 136.48 39.49 C 136.24 37.40 134.55 36.07 132.61 35.59 C 129.32 34.68 126.46 35.65 123.26 36.37 Z M 153.48 51.10 C 153.61 49.84 153.76 48.57 153.91 47.30 C 151.20 47.84 148.95 49.15 146.34 47.50 C 144.80 46.09 145.02 43.03 145.38 41.16 C 145.67 39.64 147.48 39.15 148.63 38.35 C 150.07 38.75 151.50 39.16 152.93 39.56 C 153.39 38.36 153.85 37.16 154.31 35.96 C 150.41 35.29 146.51 34.41 143.11 37.09 C 140.07 39.73 139.97 45.69 142.00 48.92 C 144.69 52.68 149.56 51.87 153.48 51.10 Z M 66.00 54.67 L 66.00 56.00 C 100.33 56.00 134.67 56.00 169.00 56.00 L 169.00 54.67 C 134.67 54.67 100.33 54.67 66.00 54.67 Z" id="p0" />
<path d="M 53.45 10.16 C 49.56 13.63 45.88 17.27 42.69 21.40 C 38.84 22.54 35.39 24.40 31.89 26.33 C 26.15 22.37 20.13 20.71 13.21 20.24 C 13.21 26.73 13.26 33.23 13.19 39.72 C 13.90 39.81 14.61 39.91 15.33 40.01 C 16.83 42.52 17.53 42.32 20.26 42.72 C 17.40 45.90 14.46 49.02 11.51 52.12 C 7.97 48.41 5.20 44.06 3.83 39.09 C 0.23 26.76 5.40 13.07 16.18 6.15 C 27.68 -1.50 43.85 0.21 53.45 10.16 Z" id="p1" />
<path d="M 140.49 10.00 L 143.00 10.00 C 142.99 14.82 143.04 19.65 142.98 24.47 C 142.13 24.04 141.29 23.60 140.46 23.14 C 138.51 23.57 136.84 23.65 134.87 23.42 C 133.75 19.98 133.79 18.06 134.88 14.62 C 137.17 14.26 138.53 14.38 140.72 15.14 C 140.63 13.43 140.55 11.71 140.49 10.00 Z M 136.83 21.82 C 137.98 21.82 139.13 21.81 140.29 21.81 C 140.67 19.60 140.71 17.83 139.77 15.74 C 138.61 16.18 137.01 16.21 136.46 17.53 C 136.24 18.92 136.63 20.44 136.83 21.82 Z" id="p2" />
<path d="M 150.63 10.00 L 153.08 10.00 C 153.06 11.73 153.03 13.46 152.99 15.19 L 153.13 16.79 C 153.16 18.58 153.26 20.35 153.40 22.12 C 154.46 21.91 155.52 21.65 156.56 21.36 C 157.25 18.21 157.26 17.22 154.46 15.47 L 153.78 14.90 C 155.10 14.52 156.11 13.76 157.45 14.58 C 160.05 16.10 159.05 19.74 159.29 22.27 C 156.90 23.59 155.79 24.11 153.06 23.22 C 152.26 23.59 151.46 23.97 150.66 24.35 C 150.61 19.57 150.63 14.78 150.63 10.00 Z" id="p3" />
<path d="M 53.45 10.16 C 60.59 17.35 63.75 28.21 61.15 38.06 C 58.99 47.22 52.17 54.96 43.48 58.48 C 32.56 62.86 19.89 60.37 11.51 52.12 C 14.46 49.02 17.40 45.90 20.26 42.72 C 22.25 42.95 24.23 43.15 26.21 43.41 C 28.00 44.20 29.78 45.01 31.60 45.75 L 31.98 45.87 C 37.11 43.47 41.29 42.25 47.02 42.12 C 47.96 39.76 49.17 37.80 50.74 35.81 C 50.82 30.63 50.77 25.44 50.82 20.25 C 48.10 20.56 45.38 20.90 42.69 21.40 C 45.88 17.27 49.56 13.63 53.45 10.16 Z" id="p4" />
<path d="M 67.80 10.84 C 70.05 11.04 72.99 10.86 74.97 12.03 C 76.77 13.08 76.29 15.12 76.05 16.85 C 74.63 18.58 72.13 18.74 70.09 19.37 C 70.14 20.92 70.18 22.46 70.21 24.00 L 67.80 24.00 C 67.80 19.61 67.80 15.23 67.80 10.84 Z M 70.13 17.28 C 71.27 16.99 72.40 16.66 73.51 16.28 C 73.70 15.33 73.83 14.38 73.90 13.41 C 72.72 13.25 71.53 13.14 70.34 13.09 C 70.23 14.48 70.16 15.88 70.13 17.28 Z" id="p5" />
<path d="M 70.34 13.09 C 71.53 13.14 72.72 13.25 73.90 13.41 C 73.83 14.38 73.70 15.33 73.51 16.28 C 72.40 16.66 71.27 16.99 70.13 17.28 C 70.16 15.88 70.23 14.48 70.34 13.09 Z" id="p6" />
<path d="M 81.33 14.26 C 84.32 13.42 87.47 15.81 87.21 19.00 C 87.49 22.68 83.68 25.00 80.48 23.38 C 76.72 21.54 77.05 15.25 81.33 14.26 Z M 80.89 21.80 C 82.03 21.80 83.16 21.81 84.30 21.82 C 84.66 19.71 84.70 17.87 84.02 15.82 C 82.53 16.22 81.27 16.01 80.46 17.56 C 80.36 19.03 80.68 20.35 80.89 21.80 Z" id="p7" />
<path d="M 88.34 13.40 C 92.24 13.83 91.61 19.10 92.49 21.98 C 93.03 19.33 93.66 16.71 94.27 14.07 C 95.21 14.02 96.14 13.97 97.07 13.91 C 97.70 16.56 98.28 19.21 98.78 21.89 C 99.83 18.92 99.31 14.00 103.21 13.39 C 102.24 16.93 101.50 20.62 100.06 24.00 L 97.85 24.00 C 96.83 21.36 96.39 18.48 95.65 15.74 C 94.99 18.49 94.34 21.23 93.77 24.00 C 92.87 24.00 91.97 24.00 91.07 24.01 C 90.12 20.48 89.05 16.99 88.34 13.40 Z" id="p8" />
<path d="M 115.74 13.33 C 116.50 14.08 117.26 14.83 118.01 15.57 C 119.18 14.92 120.35 14.27 121.53 13.63 C 121.50 14.33 121.46 15.03 121.43 15.73 C 120.38 16.27 119.37 16.86 118.38 17.49 C 117.93 19.59 118.05 21.85 118.00 24.00 L 115.60 24.00 C 115.59 20.44 115.57 16.89 115.74 13.33 Z" id="p9" />
<path d="M 160.16 13.56 L 162.75 14.32 C 163.80 16.76 164.45 19.39 165.21 21.92 C 165.87 19.46 166.42 16.87 167.49 14.55 C 168.36 14.17 169.24 13.82 170.13 13.49 C 168.56 17.72 167.31 22.25 165.15 26.22 C 164.18 28.08 161.76 27.44 160.02 27.85 C 161.01 26.59 163.38 25.55 163.89 24.03 C 163.02 20.45 161.26 17.09 160.16 13.56 Z" id="p10" />
<path d="M 108.40 14.13 L 108.17 14.57 C 107.55 15.73 106.92 16.87 106.26 18.00 C 107.81 18.00 109.36 17.98 110.90 17.98 C 110.09 16.96 109.28 15.94 108.48 14.91 L 108.75 14.23 C 112.39 14.83 112.03 16.46 113.17 19.45 C 110.78 19.53 108.38 19.58 105.99 19.67 C 106.46 20.41 106.92 21.16 107.39 21.90 C 109.30 21.92 111.21 21.92 113.11 21.96 C 110.86 23.68 109.30 24.68 106.47 23.35 C 102.21 21.24 103.38 14.31 108.40 14.13 Z" id="p11" />
<path d="M 108.40 14.13 L 108.75 14.23 L 108.48 14.91 L 108.17 14.57 L 108.40 14.13 Z" id="p12" />
<path d="M 126.24 14.42 L 126.33 15.39 C 126.00 16.26 125.66 17.13 125.32 18.00 C 126.83 18.00 128.35 17.99 129.86 17.99 C 129.19 17.05 128.53 16.11 127.86 15.17 L 127.69 14.23 C 128.69 14.56 129.67 14.93 130.64 15.34 C 131.22 16.68 131.73 18.05 132.17 19.45 C 129.78 19.53 127.38 19.58 124.99 19.67 C 125.46 20.41 125.92 21.16 126.39 21.90 C 128.30 21.92 130.21 21.92 132.11 21.96 C 130.13 23.36 128.75 24.62 126.19 23.62 C 121.72 22.23 121.74 15.92 126.24 14.42 Z" id="p13" />
<path d="M 126.24 14.42 L 126.92 13.98 L 127.69 14.23 L 127.86 15.17 L 126.33 15.39 L 126.24 14.42 Z" id="p14" />
<path d="M 152.99 15.19 L 153.78 14.90 L 154.46 15.47 L 153.13 16.79 L 152.99 15.19 Z" id="p15" />
<path d="M 84.02 15.82 C 84.70 17.87 84.66 19.71 84.30 21.82 C 83.16 21.81 82.03 21.80 80.89 21.80 C 80.68 20.35 80.36 19.03 80.46 17.56 C 81.27 16.01 82.53 16.22 84.02 15.82 Z" id="p16" />
<path d="M 108.17 14.57 L 108.48 14.91 C 109.28 15.94 110.09 16.96 110.90 17.98 C 109.36 17.98 107.81 18.00 106.26 18.00 C 106.92 16.87 107.55 15.73 108.17 14.57 Z" id="p17" />
<path d="M 126.33 15.39 L 127.86 15.17 C 128.53 16.11 129.19 17.05 129.86 17.99 C 128.35 17.99 126.83 18.00 125.32 18.00 C 125.66 17.13 126.00 16.26 126.33 15.39 Z" id="p18" />
<path d="M 139.77 15.74 C 140.71 17.83 140.67 19.60 140.29 21.81 C 139.13 21.81 137.98 21.82 136.83 21.82 C 136.63 20.44 136.24 18.92 136.46 17.53 C 137.01 16.21 138.61 16.18 139.77 15.74 Z" id="p19" />
<path d="M 154.46 15.47 C 157.26 17.22 157.25 18.21 156.56 21.36 C 155.52 21.65 154.46 21.91 153.40 22.12 C 153.26 20.35 153.16 18.58 153.13 16.79 L 154.46 15.47 Z" id="p20" />
<path d="M 13.21 20.24 C 20.13 20.71 26.15 22.37 31.89 26.33 C 32.02 32.82 32.25 39.28 31.60 45.75 C 29.78 45.01 28.00 44.20 26.21 43.41 C 22.73 41.57 19.29 40.33 15.33 40.01 C 14.61 39.91 13.90 39.81 13.19 39.72 C 13.26 33.23 13.21 26.73 13.21 20.24 Z M 28.78 28.56 C 25.02 25.44 21.41 24.44 16.58 24.28 C 20.34 26.58 24.49 27.76 28.78 28.56 Z M 16.45 27.08 C 20.40 29.19 24.22 30.41 28.64 31.06 C 24.53 28.07 21.54 27.18 16.45 27.08 Z" id="p21" />
<path d="M 42.69 21.40 C 45.38 20.90 48.10 20.56 50.82 20.25 C 50.77 25.44 50.82 30.63 50.74 35.81 C 49.17 37.80 47.96 39.76 47.02 42.12 C 41.29 42.25 37.11 43.47 31.98 45.87 L 31.60 45.75 C 32.25 39.28 32.02 32.82 31.89 26.33 C 35.39 24.40 38.84 22.54 42.69 21.40 Z M 35.18 28.65 C 39.55 27.81 43.73 26.50 47.60 24.25 C 42.85 24.53 38.85 25.46 35.18 28.65 Z M 40.67 34.18 C 39.30 33.56 36.15 34.82 36.18 36.49 C 37.49 36.93 40.69 35.73 40.67 34.18 Z" id="p22" />
<path d="M 16.58 24.28 C 21.41 24.44 25.02 25.44 28.78 28.56 C 24.49 27.76 20.34 26.58 16.58 24.28 Z" id="p23" />
<path d="M 47.60 24.25 C 43.73 26.50 39.55 27.81 35.18 28.65 C 38.85 25.46 42.85 24.53 47.60 24.25 Z" id="p24" />
<path d="M 16.45 27.08 C 21.54 27.18 24.53 28.07 28.64 31.06 C 24.22 30.41 20.40 29.19 16.45 27.08 Z" id="p25" />
<path d="M 97.17 28.84 L 97.24 31.16 C 96.13 32.78 94.43 32.08 92.69 32.45 C 92.70 31.13 92.73 29.80 92.78 28.48 C 94.29 28.37 95.73 28.27 97.17 28.84 Z" id="p26" />
<path d="M 112.93 28.00 C 114.45 28.00 115.96 28.00 117.48 28.00 C 117.48 36.00 117.48 44.00 117.48 52.01 C 116.40 52.00 115.31 51.99 114.22 51.99 C 113.95 51.07 113.68 50.16 113.41 49.25 C 111.36 50.67 109.77 52.20 107.04 51.70 C 103.26 51.13 101.66 47.48 101.68 44.00 C 101.49 40.61 102.58 36.64 106.18 35.53 C 109.20 34.53 111.19 36.06 113.63 37.56 C 113.08 34.38 112.93 31.22 112.93 28.00 Z M 112.70 47.81 C 113.79 44.36 113.74 42.62 112.62 39.19 C 110.38 38.94 107.93 37.98 106.60 40.49 C 105.93 42.40 105.79 45.32 106.88 47.09 C 108.67 49.16 110.42 48.10 112.70 47.81 Z" id="p27" />
<path d="M 68.94 28.97 C 73.21 29.03 78.51 28.72 82.42 30.65 C 88.15 33.46 88.75 41.91 85.96 46.90 C 82.51 52.57 74.67 51.87 68.94 52.04 C 68.94 44.35 68.94 36.66 68.94 28.97 Z M 73.45 32.67 C 73.42 37.82 73.44 42.98 73.44 48.13 C 76.06 47.83 79.38 48.46 81.21 46.18 C 83.48 43.72 83.33 38.73 82.09 35.84 C 80.39 32.33 76.71 33.14 73.45 32.67 Z" id="p28" />
<path d="M 162.31 30.83 C 162.39 32.22 162.48 33.61 162.55 35.00 C 164.16 35.00 165.77 35.00 167.38 35.00 C 167.39 36.11 167.41 37.23 167.42 38.34 C 165.78 38.33 164.14 38.32 162.50 38.31 C 162.53 41.28 162.28 44.34 162.71 47.27 C 164.09 48.96 165.79 48.13 167.70 48.25 C 167.65 49.28 167.59 50.31 167.53 51.34 C 164.83 51.57 160.80 52.61 159.00 49.89 C 157.57 46.48 158.25 42.06 158.10 38.41 L 155.30 38.13 C 156.24 37.03 157.21 35.95 158.14 34.84 C 159.36 33.10 160.35 31.83 162.31 30.83 Z" id="p29" />
<path d="M 73.45 32.67 C 76.71 33.14 80.39 32.33 82.09 35.84 C 83.33 38.73 83.48 43.72 81.21 46.18 C 79.38 48.46 76.06 47.83 73.44 48.13 C 73.44 42.98 73.42 37.82 73.45 32.67 Z" id="p30" />
<path d="M 40.67 34.18 C 40.69 35.73 37.49 36.93 36.18 36.49 C 36.15 34.82 39.30 33.56 40.67 34.18 Z" id="p31" />
<path d="M 92.73 35.00 C 94.20 35.00 95.66 35.00 97.13 35.00 C 97.13 40.67 97.13 46.33 97.13 52.00 C 95.66 52.00 94.20 52.00 92.73 52.00 C 92.73 46.33 92.73 40.67 92.73 35.00 Z" id="p32" />
<path d="M 132.61 35.59 C 134.55 36.07 136.24 37.40 136.48 39.49 C 136.96 43.62 136.62 47.85 136.69 52.00 C 135.74 52.00 134.79 52.00 133.84 52.00 C 133.53 51.08 133.23 50.15 132.93 49.22 C 131.34 50.20 129.80 51.43 127.91 51.72 C 125.70 52.08 122.74 51.37 121.85 49.04 C 121.40 46.81 121.38 44.75 123.58 43.50 C 126.33 42.14 129.99 42.44 132.97 41.79 C 132.25 40.74 131.74 38.92 130.53 38.39 C 128.59 38.08 126.37 38.94 124.49 39.36 C 124.08 38.37 123.67 37.37 123.26 36.37 C 126.46 35.65 129.32 34.68 132.61 35.59 Z M 133.01 44.46 C 130.70 44.59 128.45 44.69 126.27 45.54 C 126.18 46.52 126.22 47.50 126.39 48.47 C 127.86 48.73 130.57 49.10 131.52 47.63 C 132.06 46.60 132.55 45.54 133.01 44.46 Z" id="p33" />
<path d="M 154.31 35.96 C 153.85 37.16 153.39 38.36 152.93 39.56 C 151.50 39.16 150.07 38.75 148.63 38.35 C 147.48 39.15 145.67 39.64 145.38 41.16 C 145.02 43.03 144.80 46.09 146.34 47.50 C 148.95 49.15 151.20 47.84 153.91 47.30 C 153.76 48.57 153.61 49.84 153.48 51.10 C 149.56 51.87 144.69 52.68 142.00 48.92 C 139.97 45.69 140.07 39.73 143.11 37.09 C 146.51 34.41 150.41 35.29 154.31 35.96 Z" id="p34" />
<path d="M 112.62 39.19 C 113.74 42.62 113.79 44.36 112.70 47.81 C 110.42 48.10 108.67 49.16 106.88 47.09 C 105.79 45.32 105.93 42.40 106.60 40.49 C 107.93 37.98 110.38 38.94 112.62 39.19 Z" id="p35" />
<path d="M 15.33 40.01 C 19.29 40.33 22.73 41.57 26.21 43.41 C 24.23 43.15 22.25 42.95 20.26 42.72 C 17.53 42.32 16.83 42.52 15.33 40.01 Z" id="p36" />
<path d="M 126.27 45.54 C 128.45 44.69 130.70 44.59 133.01 44.46 C 132.55 45.54 132.06 46.60 131.52 47.63 C 130.57 49.10 127.86 48.73 126.39 48.47 C 126.22 47.50 126.18 46.52 126.27 45.54 Z" id="p37" />
<path d="M 66.00 54.67 C 100.33 54.67 134.67 54.67 169.00 54.67 L 169.00 56.00 C 134.67 56.00 100.33 56.00 66.00 56.00 L 66.00 54.67 Z" id="p38" />
</defs>
<g stroke-width="10pt">
<use stroke="#ffffff" xlink:href="#p0" />
<use stroke="#e03400" xlink:href="#p1" />
<use stroke="#0f0f0f" xlink:href="#p2" />
<use stroke="#191919" xlink:href="#p3" />
<use stroke="#ce2e00" xlink:href="#p4" />
<use stroke="#0e0e0e" xlink:href="#p5" />
<use stroke="#ffffff" xlink:href="#p6" />
<use stroke="#232323" xlink:href="#p7" />
<use stroke="#292929" xlink:href="#p8" />
<use stroke="#2a2a2a" xlink:href="#p9" />
<use stroke="#0c0c0c" xlink:href="#p10" />
<use stroke="#1b1b1b" xlink:href="#p11" />
<use stroke="#232323" xlink:href="#p12" />
<use stroke="#1b1b1b" xlink:href="#p13" />
<use stroke="#232323" xlink:href="#p14" />
<use stroke="#232323" xlink:href="#p15" />
<use stroke="#ffffff" xlink:href="#p16" />
<use stroke="#ffffff" xlink:href="#p17" />
<use stroke="#ffffff" xlink:href="#p18" />
<use stroke="#ffffff" xlink:href="#p19" />
<use stroke="#ffffff" xlink:href="#p20" />
<use stroke="#ffffff" xlink:href="#p21" />
<use stroke="#dcdcdc" xlink:href="#p22" />
<use stroke="#e5e5e5" xlink:href="#p23" />
<use stroke="#b7b7b7" xlink:href="#p24" />
<use stroke="#e5e5e5" xlink:href="#p25" />
<use stroke="#000000" xlink:href="#p26" />
<use stroke="#000000" xlink:href="#p27" />
<use stroke="#000000" xlink:href="#p28" />
<use stroke="#000000" xlink:href="#p29" />
<use stroke="#ffffff" xlink:href="#p30" />
<use stroke="#b5b5b5" xlink:href="#p31" />
<use stroke="#000000" xlink:href="#p32" />
<use stroke="#000000" xlink:href="#p33" />
<use stroke="#000000" xlink:href="#p34" />
<use stroke="#ffffff" xlink:href="#p35" />
<use stroke="#dec1bf" xlink:href="#p36" />
<use stroke="#ffffff" xlink:href="#p37" />
<use stroke="#000000" xlink:href="#p38" />
</g>
<g>
<use fill="#ffffff" xlink:href="#p0" />
<use fill="#e03400" xlink:href="#p1" />
<use fill="#0f0f0f" xlink:href="#p2" />
<use fill="#191919" xlink:href="#p3" />
<use fill="#ce2e00" xlink:href="#p4" />
<use fill="#0e0e0e" xlink:href="#p5" />
<use fill="#ffffff" xlink:href="#p6" />
<use fill="#232323" xlink:href="#p7" />
<use fill="#292929" xlink:href="#p8" />
<use fill="#2a2a2a" xlink:href="#p9" />
<use fill="#0c0c0c" xlink:href="#p10" />
<use fill="#1b1b1b" xlink:href="#p11" />
<use fill="#232323" xlink:href="#p12" />
<use fill="#1b1b1b" xlink:href="#p13" />
<use fill="#232323" xlink:href="#p14" />
<use fill="#232323" xlink:href="#p15" />
<use fill="#ffffff" xlink:href="#p16" />
<use fill="#ffffff" xlink:href="#p17" />
<use fill="#ffffff" xlink:href="#p18" />
<use fill="#ffffff" xlink:href="#p19" />
<use fill="#ffffff" xlink:href="#p20" />
<use fill="#ffffff" xlink:href="#p21" />
<use fill="#dcdcdc" xlink:href="#p22" />
<use fill="#e5e5e5" xlink:href="#p23" />
<use fill="#b7b7b7" xlink:href="#p24" />
<use fill="#e5e5e5" xlink:href="#p25" />
<use fill="#000000" xlink:href="#p26" />
<use fill="#000000" xlink:href="#p27" />
<use fill="#000000" xlink:href="#p28" />
<use fill="#000000" xlink:href="#p29" />
<use fill="#ffffff" xlink:href="#p30" />
<use fill="#b5b5b5" xlink:href="#p31" />
<use fill="#000000" xlink:href="#p32" />
<use fill="#000000" xlink:href="#p33" />
<use fill="#000000" xlink:href="#p34" />
<use fill="#ffffff" xlink:href="#p35" />
<use fill="#dec1bf" xlink:href="#p36" />
<use fill="#ffffff" xlink:href="#p37" />
<use fill="#000000" xlink:href="#p38" />
</g>
</svg>